<svg height="86" viewBox="0 0 108 86" width="108" xmlns="http://www.w3.org/2000/svg"><g fill="none" fill-rule="evenodd" transform="translate(-2 -2)"><rect fill="#e9f5ff" height="80" rx="14.94" transform="matrix(.9961947 .08715574 -.08715574 .9961947 4.1313 -4.622327)" width="102" x="4" y="5"/><rect fill="#fff" height="5" rx="2.5" width="18" x="53" y="22"/><rect fill="#fff" height="5" rx="2.5" width="18" x="75" y="32"/><path d="m32.6950528 68.7669211 36.5980149-30.0144565c1.2074562-.9902489 2.9726395-.8886124 4.0584589.2336797l35.0660044 36.243872c1.152065 1.190762 1.120694 3.0899979-.070068 4.2420621-.624455.604161-1.480176.9079085-2.345793.8326645l-71.6640198-6.2294155c-1.6506299-.1434815-2.8724151-1.5978962-2.7289336-3.2485261.0699657-.8048951.4616239-1.5475464 1.0863362-2.0598802z" fill="#aecaff" fill-opacity=".846564"/><path d="m15.6814952 72.8314846 24.4291912-20.073599c1.2082247-.9928048 2.9764204-.8909789 4.0626896.2339601l23.4065739 24.2398176c1.1509083 1.1918792 1.1176949 3.0910837-.0741843 4.2419921-.6244361.6029711-1.4794341.9059142-2.3442012.830598l-47.8357651-4.1662186c-1.6506058-.1437582-2.8721471-1.5983777-2.7283889-3.2489835.0699996-.8037224.4607611-1.5453782 1.0840848-2.0575667z" fill="#beffdb"/><circle cx="33" cy="32" fill="#fff0b8" r="13"/><g stroke="#484848" stroke-width="2"><circle cx="32.5" cy="32.5" r="10"/><rect height="70" rx="14.94" width="90" x="10" y="10"/><path d="m52.5 25h12.5" stroke-linecap="round"/><path d="m77.5 35h12.5" stroke-linecap="round"/><path d="m17.5 77.5 17.7-17.7c3.9003745-3.8772359 10.1996255-3.8772359 14.1 0l17.7 17.7" stroke-linecap="round"/><path d="m49.3 58.4 12.35-12.35c1.8756826-1.8777704 4.4209075-2.9328666 7.075-2.9328666s5.1993174 1.0550962 7.075 2.9328666l21.2 21.45" stroke-linecap="round"/></g></g></svg>