<svg height="21" viewBox="0 0 23 21" width="23" xmlns="http://www.w3.org/2000/svg"><g fill="none" fill-rule="evenodd" stroke="#484848" transform="translate(4 1)"><path d="m7.30330086 13.6001222c1.85818401 0 3.76946954-2.4529172 3.76946954-6.22645858 0-2.08406937-1.68764899-3.7735414-3.76946954-3.7735414-2.08182056 0-3.76946956 1.68947203-3.76946956 3.7735414 0 3.77354138 1.91450665 6.22645858 3.76946956 6.22645858z"/><path d="m5.30330086 13h4v2c0 1.1045695-.8954305 2-2 2-1.1045695 0-2-.8954305-2-2z" fill="#fff"/><path d="m5.80330086 14.63h3.5" stroke-linecap="square"/><g stroke-linecap="round"><path d="m7.30330086 1.96v-.96921055"/><path d="m12.6066017 4.15669914v-.96921055" transform="matrix(.70710678 .70710678 -.70710678 .70710678 5.952796 -7.977922)"/><path d="m2 4.15669914v-.96921055" transform="matrix(.70710678 -.70710678 .70710678 .70710678 -1.674621 2.350505)"/></g></g></svg>