<svg height="21" viewBox="0 0 23 21" width="23" xmlns="http://www.w3.org/2000/svg"><g fill="none" fill-rule="evenodd" transform="matrix(.70710678 .70710678 -.70710678 .70710678 11.5 -2.935029)"><path d="m4.90380592 4.90380592c-1.17626864 1.17626864-1.90380592 2.80126864-1.90380592 4.59619408 0 3.5898509 2.91014913 6.5 6.5 6.5 3.5898509 0 6.5-2.9101491 6.5-6.5 0-3.58985087-2.9101491-6.5-6.5-6.5" stroke="#484848" stroke-linecap="round" transform="matrix(.70710678 .70710678 -.70710678 .70710678 9.5 -3.935029)"/><path d="m10.1862915 1.12773958 1.7928932 1.56386979c.1952622.17031945.1952622.44646181 0 .61678126l-1.7928932 1.56386979c-.19526217.17031944-.51184457.17031944-.70710677 0-.0937682-.08179028-.1464466-.19272171-.1464466-.30839063v-3.12773958c0-.24086806.2238576-.43613021.5-.43613021.1326082 0 .25978517.0459493.35355337.12773958z" fill="#484848" fill-rule="nonzero"/></g></svg>