<svg height="21" viewBox="0 0 23 21" width="23" xmlns="http://www.w3.org/2000/svg"><g fill="none" fill-rule="evenodd" stroke="#484848" transform="translate(3.5 3)"><path d="m7 9.5c0-1.38071187 1.11928813-2.5 2.5-2.5h4c1.3807119 0 2.5 1.11928813 2.5 2.5v1.5c0 .5522847-.4477153 1-1 1h-5.5"/><circle cx="11.5" cy="2.5" r="2.5"/><circle cx="4.5" cy="4.5" r="2.5"/><path d="m2.5 9h4c1.38071187 0 2.5 1.1192881 2.5 2.5v1.5c0 .5522847-.44771525 1-1 1h-7c-.55228475 0-1-.4477153-1-1v-1.5c0-1.3807119 1.11928813-2.5 2.5-2.5z"/></g></svg>