<svg height="21" viewBox="0 0 23 21" width="23" xmlns="http://www.w3.org/2000/svg"><g fill="none" fill-rule="evenodd" stroke="#484848" transform="translate(2.5 4)"><path d="m11.4322402 5.97539012c.2541598-.30737428.3763885-.70281991.34-1.1l-.32-3.51c-.0740855-.82171157-.7978741-1.42933658-1.62-1.36l-3.51.29c-.39125898.04186811-.7503984.2358034-1 .54l-4.97 5.89c-.53258029.6361219-.45220409 1.58277488.18 2.12l3.83 3.22999998c.6361219.5325803 1.58277488.4522041 2.12-.18z"/><path d="m7.99852747 10.0819718 3.43371273-4.10658168c.2541598-.30737428.3763885-.70281991.34-1.1l-.32-3.51c-.0166342-.18449648-.0660215-.35820034-.141921-.51587232l.011921-.01412768c.2496016-.3041966.608741-.49813189 1-.54l3.51-.29c.8221259-.06933658 1.5459145.53828843 1.62 1.36l.32 3.51c.0363885.39718009-.0858402.79262572-.34 1.1l-4.95 5.91999998c-.5372251.6322041-1.4838781.7125803-2.12.18z"/></g></svg>