<svg height="21" viewBox="0 0 23 21" width="23" xmlns="http://www.w3.org/2000/svg"><g fill="none" fill-rule="evenodd" stroke="#484848" transform="translate(5 5)"><path d="m7.82579749 7.36992408v3.21586232c0 .2652165-.10535684.5195704-.29289322.7071068l-1.20710678 1.2071068c-.34314575.3431458-.89949493.3431458-1.24264068 0-.1647844-.1647844-.25735932-.38828-.25735932-.6213203v-4.50875562c0-.23871128-.08539216-.46954827-.24074339-.65079138l-4.34429257-5.06834133c-.35942215-.41932584-.31086062-1.05062582.10846523-1.41004797.18124311-.15535124.4120801-.2407434.65079137-.2407434h10.65155877c.5522847 0 1 .44771525 1 1 0 .23871127-.0853922.46954826-.2407434.65079137l-4.34429261 5.06834133c-.15535124.18124311-.2407434.4120801-.2407434.65079138z"/><path d="m9.5 2-2.60316549 3.03702641" stroke-linecap="round"/></g></svg>