<?xml version="1.0" encoding="UTF-8"?>
<svg width="12px" height="18px" viewBox="0 0 12 18" version="1.1" xmlns="http://www.w3.org/2000/svg" xmlns:xlink="http://www.w3.org/1999/xlink">
    <!-- Generator: Sketch 58 (84663) - https://sketch.com -->
    <title>Group 3</title>
    <desc>Created with Sketch.</desc>
    <g id="Page-2" stroke="none" stroke-width="1" fill="none" fill-rule="evenodd">
        <g id="01-empty-screen" transform="translate(-23.000000, -187.000000)">
            <g id="Group-3" transform="translate(21.000000, 187.000000)">
                <path d="M8.76946956,12 C10.6276536,12 12.5389391,9.54708279 12.5389391,5.7735414 C12.5389391,3.68947203 10.8512901,2 8.76946956,2 C6.68764901,2 5,3.68947203 5,5.7735414 C5,9.54708279 6.91450665,12 8.76946956,12 Z" id="Oval-Copy" stroke="#FFF0B8" fill="#FFF0B8"></path>
                <g id="Group-12" stroke="#484848">
                    <path d="M7.30330086,13.6001222 C9.16148487,13.6001222 11.0727704,11.147205 11.0727704,7.37366362 C11.0727704,5.28959425 9.38512141,3.60012222 7.30330086,3.60012222 C5.2214803,3.60012222 3.5338313,5.28959425 3.5338313,7.37366362 C3.5338313,11.147205 5.44833795,13.6001222 7.30330086,13.6001222 Z" id="Oval-Copy"></path>
                    <path d="M5.30330086,13 L9.30330086,13 L9.30330086,15 C9.30330086,16.1045695 8.40787036,17 7.30330086,17 C6.19873136,17 5.30330086,16.1045695 5.30330086,15 L5.30330086,13 L5.30330086,13 Z" id="Rectangle" fill="#FFFFFF"></path>
                    <path d="M5.80330086,14.63 L9.30330086,14.63" id="Line-5" stroke-linecap="square"></path>
                    <path d="M7.30330086,1.96 L7.30330086,0.990789449" id="Line-10" stroke-linecap="round"></path>
                    <path d="M12.6066017,4.15669914 L12.6066017,3.18748859" id="Line-10" stroke-linecap="round" transform="translate(12.606602, 3.196699) rotate(45.000000) translate(-12.606602, -3.196699) "></path>
                    <path d="M2,4.15669914 L2,3.18748859" id="Line-10" stroke-linecap="round" transform="translate(2.000000, 3.196699) rotate(-45.000000) translate(-2.000000, -3.196699) "></path>
                </g>
            </g>
        </g>
    </g>
</svg>