<svg enable-background="new 0 0 54 19" viewBox="0 0 54 19" xmlns="http://www.w3.org/2000/svg"><path d="m8.3 4.7v1.2c-.7-.9-1.8-1.5-3.3-1.5-2.6 0-4.8 2.3-4.8 5.3s2.3 5.3 4.9 5.3c1.5 0 2.5-.6 3.3-1.5v1.2h2.6v-10zm-2.8 7.8c-1.6 0-2.8-1.1-2.8-2.8s1.3-2.8 2.8-2.8 2.8 1.1 2.8 2.8-1.2 2.8-2.8 2.8zm12-.1c-1.5 0-2.7-1.1-2.7-2.7s1.1-2.7 2.7-2.7c1 0 1.9.5 2.3 1.3l2.2-1.3c-.8-1.5-2.5-2.6-4.5-2.6-3 0-5.3 2.3-5.3 5.3s2.2 5.3 5.3 5.3c2 0 3.7-1 4.5-2.6l-2.2-1.3c-.4.8-1.3 1.3-2.3 1.3zm7-8c-.9 0-1.7.8-1.7 1.7s.8 1.7 1.7 1.7 1.7-.8 1.7-1.7-.8-1.7-1.7-1.7zm0 7.2c-.9 0-1.7.8-1.7 1.7s.8 1.7 1.7 1.7 1.7-.8 1.7-1.7-.8-1.7-1.7-1.7zm9.3-7.2c-1.5 0-2.5.5-3.2 1.5v-1.2h-2.6v14h2.6v-5.2c.7.9 1.8 1.5 3.2 1.5 2.7 0 4.9-2.3 4.9-5.3s-2.2-5.3-4.9-5.3zm-.5 8.1c-1.6 0-2.8-1.1-2.8-2.8s1.2-2.8 2.8-2.8c1.5 0 2.7 1.1 2.7 2.8s-1.2 2.8-2.7 2.8zm7.9-12.2c-.9 0-1.6.7-1.6 1.6s.7 1.6 1.6 1.6 1.6-.7 1.6-1.6c0-.8-.7-1.6-1.6-1.6zm-1.2 4.4h2.6v10h-2.6zm11.5 6.4c-.4.8-1.3 1.3-2.3 1.3-1.5 0-2.7-1.1-2.7-2.7s1.1-2.7 2.7-2.7c1 0 1.9.5 2.3 1.3l2.2-1.3c-.8-1.5-2.5-2.6-4.5-2.6-3 0-5.3 2.3-5.3 5.3s2.2 5.3 5.3 5.3c2 0 3.7-1 4.5-2.6z" fill="#231f20"/></svg>